<svg id="Layer_1" data-name="Layer 1" xmlns="http://www.w3.org/2000/svg" viewBox="0 0 491.87 171.23"><defs><style>.cls-1{fill:#fff;}</style></defs><path class="cls-1" d="M49.29,264V155.48H92.07V259.92c0,19.58,10.49,31.36,29.72,31.36s29.61-11.78,29.61-31.36V155.48h42.78V264c0,37.77-28.33,62.71-72.5,62.71C77.85,326.71,49.29,301.88,49.29,264Z" transform="translate(-49.29 -155.48)"/><path class="cls-1" d="M200.59,155.48h78.22c33.1,0,53,16,53,42v.23c0,18.76-14.34,33.8-33.22,36.25v.82c23,1.16,41,17.95,41,40.21v.23c0,29.49-22.73,48.49-58.75,48.49H200.59Zm42.78,30.19v37.89h22c15.5,0,24.83-7.35,24.83-19.24v-.23c0-11.54-8.51-18.42-22.73-18.42Zm0,64.81v43h25.41c17.49,0,27.39-7.57,27.39-21.56v-.23c0-13.64-10-21.22-27.62-21.22Z" transform="translate(-49.29 -155.48)"/><path class="cls-1" d="M343.72,155.48H386.5v168.2H343.72Z" transform="translate(-49.29 -155.48)"/><path class="cls-1" d="M390.91,155.48h42.78v74h.82l57.34-74h45.93l-58.4,74.25,61.78,94H490.92l-42.66-66.44-14.57,18.88v47.56H390.91Z" transform="translate(-49.29 -155.48)"/></svg>